{"title":"Manny Pacquiao vs. Timothy Bradley II(HBO)(MP4)-desspratt","uid":9950044,"size":1015307831,"categoryP":"video","categoryS":"tv_shows","magnet":"?xt=urn:btih:04bf97a6f3a521cf8f528004e9d2626fd5ac642a&amp;dn=Manny+Pacquiao+vs.+Timothy+Bradley+II%28HBO%29%28MP4%29-desspratt&amp;tr=udp%3A%2F%2Ftracker.openbittorrent.com%3A80&amp;tr=udp%3A%2F%2Fopen.demonii.com%3A1337&amp;tr=udp%3A%2F%2Ftracker.coppersurfer.tk%3A6969&amp;tr=udp%3A%2F%2Fexodus.desync.com%3A6969","seeders":16,"leechers":1,"uploader":"desspratt","files":1,"time":1397387204,"description":"Apr 2014 MGM Grand, Grand Garden Arena, Las Vegas, Nevada, USA \nThis is a English version of the HBO PPV broadcast of the fight between Timothy Bradley  and Manny Pacquiao II .\nThe Video Format is MP4 \nEntrances: yes \nIntroduction: yes \nBetween rounds: Yes \nInterview(s): Both Fighters \n\n\n\n[URL=https://imageshack.com/i/gvv5kkj][IMG]http://imagizer.imageshack.us/v2/1024x768q90/607/v5kk.jpg[/IMG][/URL]\n[URL=https://imageshack.com/i/npof9uj][IMG]http://imagizer.imageshack.us/v2/1024x768q90/853/of9u.jpg[/IMG][/URL]\n[URL=https://imageshack.com/i/5hg4wgj][IMG]http://imagizer.imageshack.us/v2/1024x768q90/197/g4wg.jpg[/IMG][/URL]\n++++++++++++++++++++++++++++++++++++++++++++++++++++++++++++++++++++++++++++++++++++++++++++++++++++++++++++++++++++++++++++++++++++++++++++++++++++++++++++++++++++++++++++++++++++++++++++++++++++++\n\nFormat                                   : MPEG-4\nFormat profile                           : Base Media / Version 2\nCodec ID                                 : mp42\nFile size                                : 968 MiB\nDuration                                 : 1h 26mn\nOverall bit rate mode                    : Variable\nOverall bit rate                         : 1 564 Kbps\nEncoded date                             : UTC 2014-04-13 05:53:51\nTagged date                              : UTC 2014-04-13 06:05:39\nWriting application                      : HandBrake 0.9.9 2013052900\n\nVideo\nID                                       : 1\nFormat                                   : AVC\nFormat/Info                              : Advanced Video Codec\nFormat profile                           : &lt;a class=&quot;__cf_email__&quot; href=&quot;/cdn-cgi/l/email-protection&quot; data-cfemail=&quot;bdf0dcd4d3fdf189938d&quot;&gt;[email&amp;#160;protected]&lt;/a&gt;&lt;script cf-hash='f9e31' type=&quot;text/javascript&quot;&gt;\n/* &lt;![CDATA[ */!function(){try{var t=&quot;currentScript&quot;in document?document.currentScript:function(){for(var t=document.getElementsByTagName(&quot;script&quot;),e=t.length;e--;)if(t[e].getAttribute(&quot;cf-hash&quot;))return t[e]}();if(t&amp;&amp;t.previousSibling){var e,r,n,i,c=t.previousSibling,a=c.getAttribute(&quot;data-cfemail&quot;);if(a){for(e=&quot;&quot;,r=parseInt(a.substr(0,2),16),n=2;a.length-n;n+=2)i=parseInt(a.substr(n,2),16)^r,e+=String.fromCharCode(i);e=document.createTextNode(e),c.parentNode.replaceChild(e,c)}}}catch(u){}}();/* ]]&gt; */&lt;/script&gt;\nFormat settings, CABAC                   : Yes\nFormat settings, ReFrames                : 4 frames\nCodec ID                                 : avc1\nCodec ID/Info                            : Advanced Video Coding\nDuration                                 : 1h 26mn\nBit rate                                 : 1 400 Kbps\nWidth                                    : 704 pixels\nHeight                                   : 396 pixels\nDisplay aspect ratio                     : 16:9\nFrame rate mode                          : Variable\nFrame rate                               : 29.970 fps\nMinimum frame rate                       : 9.990 fps\nMaximum frame rate                       : 29.980 fps\nColor space                              : YUV\nChroma subsampling                       : 4:2:0\nBit depth                                : 8 bits\nScan type                                : Progressive\nBits/(Pixel*Frame)                       : 0.168\nStream size                              : 866 MiB (89%)\nWriting library                          : x264 core 130 r2273 b3065e6\nEncoding settings                        : cabac=1 / ref=1 / deblock=1:0:0 / analyse=0x1:0x111 / me=hex / subme=2 / psy=1 / psy_rd=1.00:0.00 / mixed_ref=0 / me_range=16 / chroma_me=1 / trellis=0 / 8x8dct=0 / cqm=0 / deadzone=21,11 / fast_pskip=1 / chroma_qp_offset=0 / threads=12 / lookahead_threads=3 / sliced_threads=0 / nr=0 / decimate=1 / interlaced=0 / bluray_compat=0 / constrained_intra=0 / bframes=3 / b_pyramid=2 / b_adapt=1 / b_bias=0 / direct=1 / weightb=1 / open_gop=0 / weightp=1 / keyint=300 / keyint_min=30 / scenecut=40 / intra_refresh=0 / rc_lookahead=10 / rc=2pass / mbtree=1 / bitrate=1400 / ratetol=1.0 / qcomp=0.60 / qpmin=0 / qpmax=69 / qpstep=4 / cplxblur=20.0 / qblur=0.5 / vbv_maxrate=20000 / vbv_bufsize=25000 / nal_hrd=none / ip_ratio=1.40 / aq=1:1.00\nEncoded date                             : UTC 2014-04-13 05:53:51\nTagged date                              : UTC 2014-04-13 06:05:39\nColor primaries                          : BT.601 NTSC\nTransfer characteristics                 : BT.709\nMatrix coefficients                      : BT.601\n\nAudio\nID                                       : 2\nFormat                                   : AAC\nFormat/Info                              : Advanced Audio Codec\nFormat profile                           : LC\nCodec ID                                 : 40\nDuration                                 : 1h 26mn\nBit rate mode                            : Variable\nBit rate                                 : 160 Kbps\nMaximum bit rate                         : 187 Kbps\nChannel(s)                               : 2 channels\nChannel positions                        : Front: L R\nSampling rate                            : 48.0 KHz\nCompression mode                         : Lossy\nStream size                              : 99.0 MiB (10%)\nEncoded date                             : UTC 2014-04-13 05:53:51\nTagged date                              : UTC 2014-04-13 06:05:38\n\nMenu\nID                                       : 3\nCodec ID                                 : text\nDuration                                 : 1h 26mn\nEncoded date                             : UTC 2014-04-13 05:53:51\nTagged date                              : UTC 2014-04-13 06:05:39\nBit rate mode                            : CBR\n\n\n\n\n\n\n\n\n &lt;a href=&quot;\nhttp://imagizer.imageshack.us/v2/1024x768q90/607/v5kk.jpg&quot; rel=&quot;nofollow&quot; target=&quot;_NEW&quot;&gt;\nhttp://imagizer.imageshack.us/v2/1024x768q90/607/v5kk.jpg&lt;/a&gt; &lt;a href=&quot;\nhttp://imagizer.imageshack.us/v2/1024x768q90/853/of9u.jpg&quot; rel=&quot;nofollow&quot; target=&quot;_NEW&quot;&gt;\nhttp://imagizer.imageshack.us/v2/1024x768q90/853/of9u.jpg&lt;/a&gt; &lt;a href=&quot;\nhttp://imagizer.imageshack.us/v2/1024x768q90/197/g4wg.jpg&quot; rel=&quot;nofollow&quot; target=&quot;_NEW&quot;&gt;\nhttp://imagizer.imageshack.us/v2/1024x768q90/197/g4wg.jpg&lt;/a&gt;\n","torrent":{"xt":"urn:btih:04bf97a6f3a521cf8f528004e9d2626fd5ac642a","amp;dn":"Manny+Pacquiao+vs.+Timothy+Bradley+II%28HBO%29%28MP4%29-desspratt","amp;tr":["udp%3A%2F%2Ftracker.openbittorrent.com%3A80","udp%3A%2F%2Fopen.demonii.com%3A1337","udp%3A%2F%2Ftracker.coppersurfer.tk%3A6969","udp%3A%2F%2Fexodus.desync.com%3A6969"],"infoHash":"04bf97a6f3a521cf8f528004e9d2626fd5ac642a","infoHashBuffer":{"type":"Buffer","data":[4,191,151,166,243,165,33,207,143,82,128,4,233,210,98,111,213,172,100,42]},"announce":[],"urlList":[]}}